<svg width="297" height="38" viewBox="0 0 297 38" fill="none" xmlns="http://www.w3.org/2000/svg">
<path fill-rule="evenodd" clip-rule="evenodd" d="M12.1331 34.4586C10.4099 34.4586 9 33.0487 9 31.3255L9 20.3719L16.8863 20.3719L16.8863 20.3598L21.6263 20.3598C22.8482 20.3285 23.8821 19.2632 23.8821 18.01C23.8821 16.7254 22.8168 15.6602 21.5323 15.6602L15.2661 15.6602L15.2661 15.6622L9 15.6622L9 12.5271C9 10.8039 10.4099 9.39404 12.1331 9.39404L21.5323 9.39404C23.9134 9.39404 25.9499 10.24 27.6104 11.9318C29.3023 13.5924 30.1482 15.6289 30.1482 18.01C30.1482 20.3598 29.3336 22.3963 27.6731 24.0568C26.0126 25.7173 24.0074 26.5946 21.6576 26.6259L15.2661 26.6259L15.2661 31.3255C15.2661 33.0487 13.8563 34.4586 12.1331 34.4586Z" fill="#02BC6B"/>
<path fill-rule="evenodd" clip-rule="evenodd" d="M34.0976 5.75781C37.559 9.11995 39.3033 13.3073 39.3033 18.0673C39.3033 22.7473 37.632 26.9307 34.224 30.3034L29.3854 25.7508C31.5048 23.6533 32.5452 21.128 32.5452 18.0673C32.5452 14.9832 31.4735 12.4619 29.3032 10.3538L34.0976 5.75781Z" fill="#02897A"/>
<path fill-rule="evenodd" clip-rule="evenodd" d="M41.5057 -3.14562e-08C46.4914 4.97781 49.0002 11.1499 49.0002 18.2338C49.0002 25.2071 46.5925 31.3753 41.6887 36.3638L37.0189 31.8009C40.6717 28.085 42.4616 23.5781 42.4616 18.2338C42.4616 12.8358 40.6114 8.33276 36.8789 4.60616L41.5057 -3.14562e-08Z" fill="#035B81"/>
<path fill-rule="evenodd" clip-rule="evenodd" d="M9 26.6523L15.2661 26.6523L15.2661 31.326C15.2661 33.0492 13.8563 34.459 12.1331 34.459C10.4099 34.459 9 33.0492 9 31.326L9 26.6523Z" fill="#028E37"/>
<path d="M19.5 5.99976L9.5 15.4998L7.5 18.4998C7.5 18.4998 17 27.4998 19.5 29.9998C22 32.4998 19.5 37.4998 19.5 37.4998L5 22.4998V34.9998C2.84163 31.7858 1.78429 32.4047 0 34.9998V2.49976C1.95262 2.49976 2.5 5.5 5 2.49976C7.5 -0.500484 5 12.4998 5 12.4998C5 12.4998 14.5 3.49981 17 2.49976C19.5 1.49971 20.7564 3.04134 19.5 5.99976Z" fill="#02BC6B"/>
<path d="M79.07 29L71.99 19.7V29H66.86V7.94H71.99V17.18L79.01 7.94H85.04L76.88 18.26L85.34 29H79.07ZM86.758 20.6C86.758 18.88 87.078 17.37 87.718 16.07C88.378 14.77 89.268 13.77 90.388 13.07C91.508 12.37 92.758 12.02 94.138 12.02C95.318 12.02 96.348 12.26 97.228 12.74C98.128 13.22 98.818 13.85 99.298 14.63V12.26H104.428V29H99.298V26.63C98.798 27.41 98.098 28.04 97.198 28.52C96.318 29 95.288 29.24 94.108 29.24C92.748 29.24 91.508 28.89 90.388 28.19C89.268 27.47 88.378 26.46 87.718 25.16C87.078 23.84 86.758 22.32 86.758 20.6ZM99.298 20.63C99.298 19.35 98.938 18.34 98.218 17.6C97.518 16.86 96.658 16.49 95.638 16.49C94.618 16.49 93.748 16.86 93.028 17.6C92.328 18.32 91.978 19.32 91.978 20.6C91.978 21.88 92.328 22.9 93.028 23.66C93.748 24.4 94.618 24.77 95.638 24.77C96.658 24.77 97.518 24.4 98.218 23.66C98.938 22.92 99.298 21.91 99.298 20.63ZM112.939 24.77H120.199V29H107.209V24.92L114.169 16.49H107.269V12.26H120.049V16.34L112.939 24.77ZM139.552 12.26V29H134.422V26.72C133.902 27.46 133.192 28.06 132.292 28.52C131.412 28.96 130.432 29.18 129.352 29.18C128.072 29.18 126.942 28.9 125.962 28.34C124.982 27.76 124.222 26.93 123.682 25.85C123.142 24.77 122.872 23.5 122.872 22.04V12.26H127.972V21.35C127.972 22.47 128.262 23.34 128.842 23.96C129.422 24.58 130.202 24.89 131.182 24.89C132.182 24.89 132.972 24.58 133.552 23.96C134.132 23.34 134.422 22.47 134.422 21.35V12.26H139.552ZM153.527 12.08C155.447 12.08 156.987 12.72 158.147 14C159.307 15.26 159.887 17 159.887 19.22V29H154.787V19.91C154.787 18.79 154.497 17.92 153.917 17.3C153.337 16.68 152.557 16.37 151.577 16.37C150.597 16.37 149.817 16.68 149.237 17.3C148.657 17.92 148.367 18.79 148.367 19.91V29H143.237V6.8H148.367V14.51C148.887 13.77 149.597 13.18 150.497 12.74C151.397 12.3 152.407 12.08 153.527 12.08ZM162.432 20.6C162.432 18.88 162.752 17.37 163.392 16.07C164.052 14.77 164.942 13.77 166.062 13.07C167.182 12.37 168.432 12.02 169.812 12.02C170.992 12.02 172.022 12.26 172.902 12.74C173.802 13.22 174.492 13.85 174.972 14.63V12.26H180.102V29H174.972V26.63C174.472 27.41 173.772 28.04 172.872 28.52C171.992 29 170.962 29.24 169.782 29.24C168.422 29.24 167.182 28.89 166.062 28.19C164.942 27.47 164.052 26.46 163.392 25.16C162.752 23.84 162.432 22.32 162.432 20.6ZM174.972 20.63C174.972 19.35 174.612 18.34 173.892 17.6C173.192 16.86 172.332 16.49 171.312 16.49C170.292 16.49 169.422 16.86 168.702 17.6C168.002 18.32 167.652 19.32 167.652 20.6C167.652 21.88 168.002 22.9 168.702 23.66C169.422 24.4 170.292 24.77 171.312 24.77C172.332 24.77 173.192 24.4 173.892 23.66C174.612 22.92 174.972 21.91 174.972 20.63ZM206.221 14.72C206.221 15.94 205.941 17.06 205.381 18.08C204.821 19.08 203.961 19.89 202.801 20.51C201.641 21.13 200.201 21.44 198.481 21.44H195.301V29H190.171V7.94H198.481C200.161 7.94 201.581 8.23 202.741 8.81C203.901 9.39 204.771 10.19 205.351 11.21C205.931 12.23 206.221 13.4 206.221 14.72ZM198.091 17.36C199.071 17.36 199.801 17.13 200.281 16.67C200.761 16.21 201.001 15.56 201.001 14.72C201.001 13.88 200.761 13.23 200.281 12.77C199.801 12.31 199.071 12.08 198.091 12.08H195.301V17.36H198.091ZM214.021 15.05C214.621 14.13 215.371 13.41 216.271 12.89C217.171 12.35 218.171 12.08 219.271 12.08V17.51H217.861C216.581 17.51 215.621 17.79 214.981 18.35C214.341 18.89 214.021 19.85 214.021 21.23V29H208.891V12.26H214.021V15.05ZM229.343 29.24C227.703 29.24 226.223 28.89 224.903 28.19C223.603 27.49 222.573 26.49 221.813 25.19C221.073 23.89 220.703 22.37 220.703 20.63C220.703 18.91 221.083 17.4 221.843 16.1C222.603 14.78 223.643 13.77 224.963 13.07C226.283 12.37 227.763 12.02 229.403 12.02C231.043 12.02 232.523 12.37 233.843 13.07C235.163 13.77 236.203 14.78 236.963 16.1C237.723 17.4 238.103 18.91 238.103 20.63C238.103 22.35 237.713 23.87 236.933 25.19C236.173 26.49 235.123 27.49 233.783 28.19C232.463 28.89 230.983 29.24 229.343 29.24ZM229.343 24.8C230.323 24.8 231.153 24.44 231.833 23.72C232.533 23 232.883 21.97 232.883 20.63C232.883 19.29 232.543 18.26 231.863 17.54C231.203 16.82 230.383 16.46 229.403 16.46C228.403 16.46 227.573 16.82 226.913 17.54C226.253 18.24 225.923 19.27 225.923 20.63C225.923 21.97 226.243 23 226.883 23.72C227.543 24.44 228.363 24.8 229.343 24.8ZM243.375 10.52C242.475 10.52 241.735 10.26 241.155 9.74C240.595 9.2 240.315 8.54 240.315 7.76C240.315 6.96 240.595 6.3 241.155 5.78C241.735 5.24 242.475 4.97 243.375 4.97C244.255 4.97 244.975 5.24 245.535 5.78C246.115 6.3 246.405 6.96 246.405 7.76C246.405 8.54 246.115 9.2 245.535 9.74C244.975 10.26 244.255 10.52 243.375 10.52ZM245.955 31.16C245.955 33.22 245.435 34.7 244.395 35.6C243.355 36.52 241.905 36.98 240.045 36.98H238.035V32.63H239.265C239.825 32.63 240.225 32.52 240.465 32.3C240.705 32.08 240.825 31.72 240.825 31.22V12.26H245.955V31.16ZM265.423 20.36C265.423 20.84 265.393 21.34 265.333 21.86H253.723C253.803 22.9 254.133 23.7 254.713 24.26C255.313 24.8 256.043 25.07 256.903 25.07C258.183 25.07 259.073 24.53 259.573 23.45H265.033C264.753 24.55 264.243 25.54 263.503 26.42C262.783 27.3 261.873 27.99 260.773 28.49C259.673 28.99 258.443 29.24 257.083 29.24C255.443 29.24 253.983 28.89 252.703 28.19C251.423 27.49 250.423 26.49 249.703 25.19C248.983 23.89 248.623 22.37 248.623 20.63C248.623 18.89 248.973 17.37 249.673 16.07C250.393 14.77 251.393 13.77 252.673 13.07C253.953 12.37 255.423 12.02 257.083 12.02C258.703 12.02 260.143 12.36 261.403 13.04C262.663 13.72 263.643 14.69 264.343 15.95C265.063 17.21 265.423 18.68 265.423 20.36ZM260.173 19.01C260.173 18.13 259.873 17.43 259.273 16.91C258.673 16.39 257.923 16.13 257.023 16.13C256.163 16.13 255.433 16.38 254.833 16.88C254.253 17.38 253.893 18.09 253.753 19.01H260.173ZM267.11 20.63C267.11 18.89 267.46 17.37 268.16 16.07C268.88 14.77 269.87 13.77 271.13 13.07C272.41 12.37 273.87 12.02 275.51 12.02C277.61 12.02 279.36 12.57 280.76 13.67C282.18 14.77 283.11 16.32 283.55 18.32H278.09C277.63 17.04 276.74 16.4 275.42 16.4C274.48 16.4 273.73 16.77 273.17 17.51C272.61 18.23 272.33 19.27 272.33 20.63C272.33 21.99 272.61 23.04 273.17 23.78C273.73 24.5 274.48 24.86 275.42 24.86C276.74 24.86 277.63 24.22 278.09 22.94H283.55C283.11 24.9 282.18 26.44 280.76 27.56C279.34 28.68 277.59 29.24 275.51 29.24C273.87 29.24 272.41 28.89 271.13 28.19C269.87 27.49 268.88 26.49 268.16 25.19C267.46 23.89 267.11 22.37 267.11 20.63ZM295.624 24.65V29H293.014C291.154 29 289.704 28.55 288.664 27.65C287.624 26.73 287.104 25.24 287.104 23.18V16.52H285.064V12.26H287.104V8.18H292.234V12.26H295.594V16.52H292.234V23.24C292.234 23.74 292.354 24.1 292.594 24.32C292.834 24.54 293.234 24.65 293.794 24.65H295.624Z" fill="#173A56"/>
<path d="M19.5 6.00066C22 3.00064 19.5 1.00001 16 3.00066C12.5 5.0013 5.5 12.0688 5.5 12.0688L0 17.0007V24.5007C0 24.5007 17 9.00067 19.5 6.00066Z" fill="#028E37"/>
</svg>
