<svg width="49" height="38" viewBox="0 0 49 38" fill="none" xmlns="http://www.w3.org/2000/svg">
<path fill-rule="evenodd" clip-rule="evenodd" d="M12.1331 34.4586C10.4099 34.4586 9 33.0487 9 31.3255L9 20.3719L16.8863 20.3719L16.8863 20.3598L21.6263 20.3598C22.8482 20.3285 23.8821 19.2632 23.8821 18.01C23.8821 16.7254 22.8168 15.6602 21.5323 15.6602L15.2661 15.6602L15.2661 15.6622L9 15.6622L9 12.5271C9 10.8039 10.4099 9.39404 12.1331 9.39404L21.5323 9.39404C23.9134 9.39404 25.9499 10.24 27.6104 11.9318C29.3023 13.5924 30.1482 15.6289 30.1482 18.01C30.1482 20.3598 29.3336 22.3963 27.6731 24.0568C26.0126 25.7173 24.0074 26.5946 21.6576 26.6259L15.2661 26.6259L15.2661 31.3255C15.2661 33.0487 13.8563 34.4586 12.1331 34.4586Z" fill="#02BC6B"/>
<path fill-rule="evenodd" clip-rule="evenodd" d="M34.0976 5.75781C37.559 9.11995 39.3033 13.3073 39.3033 18.0673C39.3033 22.7473 37.632 26.9307 34.224 30.3034L29.3854 25.7508C31.5048 23.6533 32.5452 21.128 32.5452 18.0673C32.5452 14.9832 31.4735 12.4619 29.3032 10.3538L34.0976 5.75781Z" fill="#02897A"/>
<path fill-rule="evenodd" clip-rule="evenodd" d="M41.5057 -3.14562e-08C46.4914 4.97781 49.0002 11.1499 49.0002 18.2338C49.0002 25.2071 46.5925 31.3753 41.6887 36.3638L37.0189 31.8009C40.6717 28.085 42.4616 23.5781 42.4616 18.2338C42.4616 12.8358 40.6114 8.33276 36.8789 4.60616L41.5057 -3.14562e-08Z" fill="#035B81"/>
<path fill-rule="evenodd" clip-rule="evenodd" d="M8.99999 26.6524L15.2661 26.6524L15.2661 31.326C15.2661 33.0492 13.8562 34.4591 12.1331 34.4591C10.4099 34.4591 8.99999 33.0492 8.99999 31.326L8.99999 26.6524Z" fill="#028E37"/>
<path d="M19.5 5.99976L9.5 15.4998L7.5 18.4998C7.5 18.4998 17 27.4998 19.5 29.9998C22 32.4998 19.5 37.4998 19.5 37.4998L5 22.4998V34.9998C2.84163 31.7858 1.78429 32.4047 0 34.9998V2.49976C1.95262 2.49976 2.5 5.5 5 2.49976C7.5 -0.500484 5 12.4998 5 12.4998C5 12.4998 14.5 3.49981 17 2.49976C19.5 1.49971 20.7564 3.04134 19.5 5.99976Z" fill="#02BC6B"/>
</svg>
